<mxfile host="app.diagrams.net" agent="Mozilla/5.0 (Windows NT 10.0; Win64; x64) AppleWebKit/537.36 (KHTML, like Gecko) Chrome/141.0.0.0 Safari/537.36" version="28.2.7">
  <diagram name="Página-1" id="AW_4SV1VjklhSY8sd2_t">
    <mxGraphModel dx="1042" dy="527" grid="0" gridSize="10" guides="1" tooltips="1" connect="1" arrows="1" fold="1" page="1" pageScale="1" pageWidth="1169" pageHeight="827" math="0" shadow="0">
      <root>
        <mxCell id="0" />
        <mxCell id="1" parent="0" />
        <mxCell id="fFbLZVn89i1oZEoZOz1--1" value="Cliente&lt;div&gt;&lt;br&gt;&lt;/div&gt;" style="shape=umlActor;verticalLabelPosition=bottom;verticalAlign=top;html=1;outlineConnect=0;" parent="1" vertex="1">
          <mxGeometry x="397" y="159" width="30" height="50" as="geometry" />
        </mxCell>
        <mxCell id="fFbLZVn89i1oZEoZOz1--15" value="" style="rounded=0;whiteSpace=wrap;html=1;" parent="1" vertex="1">
          <mxGeometry x="366" y="265" width="90" height="40" as="geometry" />
        </mxCell>
        <mxCell id="fFbLZVn89i1oZEoZOz1--16" value="Acceso (Ticketing)" style="text;html=1;align=center;verticalAlign=middle;whiteSpace=wrap;rounded=0;" parent="1" vertex="1">
          <mxGeometry x="381" y="270" width="62" height="30" as="geometry" />
        </mxCell>
        <mxCell id="54EEIA_b8rpqhzSQcVar-28" value="" style="edgeStyle=orthogonalEdgeStyle;rounded=0;orthogonalLoop=1;jettySize=auto;html=1;" parent="1" source="fFbLZVn89i1oZEoZOz1--17" target="54EEIA_b8rpqhzSQcVar-13" edge="1">
          <mxGeometry relative="1" as="geometry" />
        </mxCell>
        <mxCell id="2O2xdy5Lqr-6Pk8-hybj-3" value="Rest/HTTP" style="edgeLabel;html=1;align=center;verticalAlign=middle;resizable=0;points=[];" parent="54EEIA_b8rpqhzSQcVar-28" vertex="1" connectable="0">
          <mxGeometry x="0.3724" y="-3" relative="1" as="geometry">
            <mxPoint y="4" as="offset" />
          </mxGeometry>
        </mxCell>
        <mxCell id="2O2xdy5Lqr-6Pk8-hybj-1" style="edgeStyle=orthogonalEdgeStyle;rounded=0;orthogonalLoop=1;jettySize=auto;html=1;exitX=0.5;exitY=1;exitDx=0;exitDy=0;entryX=0.5;entryY=0;entryDx=0;entryDy=0;" parent="1" source="fFbLZVn89i1oZEoZOz1--17" target="54EEIA_b8rpqhzSQcVar-49" edge="1">
          <mxGeometry relative="1" as="geometry" />
        </mxCell>
        <mxCell id="2O2xdy5Lqr-6Pk8-hybj-2" value="Rest/HTTP" style="edgeLabel;html=1;align=center;verticalAlign=middle;resizable=0;points=[];rotation=0;" parent="2O2xdy5Lqr-6Pk8-hybj-1" vertex="1" connectable="0">
          <mxGeometry x="0.5675" y="3" relative="1" as="geometry">
            <mxPoint x="-11" y="1" as="offset" />
          </mxGeometry>
        </mxCell>
        <mxCell id="fFbLZVn89i1oZEoZOz1--17" value="" style="rounded=0;whiteSpace=wrap;html=1;" parent="1" vertex="1">
          <mxGeometry x="580" y="265" width="130" height="40" as="geometry" />
        </mxCell>
        <mxCell id="fFbLZVn89i1oZEoZOz1--18" value="Plataforma central (API Unificada)" style="text;html=1;align=center;verticalAlign=middle;whiteSpace=wrap;rounded=0;" parent="1" vertex="1">
          <mxGeometry x="592.5" y="270" width="105" height="30" as="geometry" />
        </mxCell>
        <mxCell id="54EEIA_b8rpqhzSQcVar-44" style="edgeStyle=orthogonalEdgeStyle;rounded=0;orthogonalLoop=1;jettySize=auto;html=1;entryX=0.5;entryY=0;entryDx=0;entryDy=0;" parent="1" source="fFbLZVn89i1oZEoZOz1--23" target="fFbLZVn89i1oZEoZOz1--17" edge="1">
          <mxGeometry relative="1" as="geometry">
            <mxPoint x="755" y="82" as="targetPoint" />
          </mxGeometry>
        </mxCell>
        <mxCell id="fFbLZVn89i1oZEoZOz1--23" value="Empleado" style="shape=umlActor;verticalLabelPosition=bottom;verticalAlign=top;html=1;outlineConnect=0;" parent="1" vertex="1">
          <mxGeometry x="630" y="157" width="30" height="50" as="geometry" />
        </mxCell>
        <mxCell id="fFbLZVn89i1oZEoZOz1--24" value="Gestor" style="shape=umlActor;verticalLabelPosition=bottom;verticalAlign=top;html=1;outlineConnect=0;" parent="1" vertex="1">
          <mxGeometry x="781" y="151" width="30" height="50" as="geometry" />
        </mxCell>
        <mxCell id="W1p5YG6WSGKKvp44htcb-15" style="edgeStyle=orthogonalEdgeStyle;rounded=0;orthogonalLoop=1;jettySize=auto;html=1;exitX=0.5;exitY=1;exitDx=0;exitDy=0;entryX=0.5;entryY=0;entryDx=0;entryDy=0;" edge="1" parent="1" source="fFbLZVn89i1oZEoZOz1--39" target="W1p5YG6WSGKKvp44htcb-9">
          <mxGeometry relative="1" as="geometry" />
        </mxCell>
        <mxCell id="fFbLZVn89i1oZEoZOz1--39" value="" style="rounded=0;whiteSpace=wrap;html=1;" parent="1" vertex="1">
          <mxGeometry x="666" y="498" width="90" height="40" as="geometry" />
        </mxCell>
        <mxCell id="fFbLZVn89i1oZEoZOz1--40" value="Mantenimiento (Orden ERP)" style="text;html=1;align=center;verticalAlign=middle;whiteSpace=wrap;rounded=0;" parent="1" vertex="1">
          <mxGeometry x="677.88" y="503" width="66.25" height="30" as="geometry" />
        </mxCell>
        <mxCell id="W1p5YG6WSGKKvp44htcb-14" style="edgeStyle=orthogonalEdgeStyle;rounded=0;orthogonalLoop=1;jettySize=auto;html=1;exitX=0.5;exitY=1;exitDx=0;exitDy=0;entryX=0.5;entryY=0;entryDx=0;entryDy=0;" edge="1" parent="1" source="54EEIA_b8rpqhzSQcVar-9" target="fFbLZVn89i1oZEoZOz1--39">
          <mxGeometry relative="1" as="geometry" />
        </mxCell>
        <mxCell id="54EEIA_b8rpqhzSQcVar-9" value="" style="rounded=0;whiteSpace=wrap;html=1;" parent="1" vertex="1">
          <mxGeometry x="611" y="377.5" width="200" height="87" as="geometry" />
        </mxCell>
        <mxCell id="54EEIA_b8rpqhzSQcVar-10" value="IoT (Datos Operativos)&lt;div&gt;&lt;br&gt;&lt;div&gt;- Remontes&lt;/div&gt;&lt;div&gt;- Lecturas de Sensores&lt;/div&gt;&lt;div&gt;- Temperatura /&lt;span style=&quot;background-color: transparent; color: light-dark(rgb(0, 0, 0), rgb(255, 255, 255));&quot;&gt;Vibración&lt;/span&gt;&lt;/div&gt;&lt;/div&gt;" style="text;html=1;align=center;verticalAlign=middle;whiteSpace=wrap;rounded=0;" parent="1" vertex="1">
          <mxGeometry x="622.25" y="404.5" width="177.5" height="30" as="geometry" />
        </mxCell>
        <mxCell id="54EEIA_b8rpqhzSQcVar-13" value="" style="rounded=0;whiteSpace=wrap;html=1;" parent="1" vertex="1">
          <mxGeometry x="365.38" y="377.5" width="220" height="110" as="geometry" />
        </mxCell>
        <mxCell id="54EEIA_b8rpqhzSQcVar-14" value="CRM (Datos Administrativos)&lt;div&gt;&lt;span style=&quot;background-color: transparent; color: light-dark(rgb(0, 0, 0), rgb(255, 255, 255));&quot;&gt;&lt;br&gt;&lt;/span&gt;&lt;/div&gt;&lt;div&gt;&lt;span style=&quot;background-color: transparent; color: light-dark(rgb(0, 0, 0), rgb(255, 255, 255));&quot;&gt;- Clientes&lt;/span&gt;&lt;/div&gt;&lt;div&gt;&lt;span style=&quot;background-color: transparent; color: light-dark(rgb(0, 0, 0), rgb(255, 255, 255));&quot;&gt;- Pedidos&lt;/span&gt;&lt;/div&gt;&lt;div&gt;&lt;span style=&quot;background-color: transparent; color: light-dark(rgb(0, 0, 0), rgb(255, 255, 255));&quot;&gt;- Facturas&lt;/span&gt;&lt;/div&gt;&lt;div&gt;&lt;span style=&quot;background-color: transparent; color: light-dark(rgb(0, 0, 0), rgb(255, 255, 255));&quot;&gt;- Pagos&lt;/span&gt;&lt;/div&gt;" style="text;html=1;align=center;verticalAlign=middle;whiteSpace=wrap;rounded=0;" parent="1" vertex="1">
          <mxGeometry x="361" y="417.5" width="228.75" height="30" as="geometry" />
        </mxCell>
        <mxCell id="54EEIA_b8rpqhzSQcVar-29" value="" style="edgeStyle=orthogonalEdgeStyle;rounded=0;orthogonalLoop=1;jettySize=auto;html=1;exitX=0.5;exitY=1;exitDx=0;exitDy=0;entryX=0.5;entryY=0;entryDx=0;entryDy=0;" parent="1" source="fFbLZVn89i1oZEoZOz1--17" target="54EEIA_b8rpqhzSQcVar-9" edge="1">
          <mxGeometry relative="1" as="geometry">
            <mxPoint x="768.5" y="320" as="sourcePoint" />
            <mxPoint x="697.5" y="413" as="targetPoint" />
          </mxGeometry>
        </mxCell>
        <mxCell id="2O2xdy5Lqr-6Pk8-hybj-4" value="REST/HTTP" style="edgeLabel;html=1;align=center;verticalAlign=middle;resizable=0;points=[];" parent="54EEIA_b8rpqhzSQcVar-29" vertex="1" connectable="0">
          <mxGeometry x="0.8182" relative="1" as="geometry">
            <mxPoint x="-1" y="-8" as="offset" />
          </mxGeometry>
        </mxCell>
        <mxCell id="54EEIA_b8rpqhzSQcVar-40" value="" style="endArrow=classic;html=1;rounded=0;entryX=0;entryY=0.5;entryDx=0;entryDy=0;exitX=1;exitY=0.5;exitDx=0;exitDy=0;" parent="1" source="fFbLZVn89i1oZEoZOz1--15" target="fFbLZVn89i1oZEoZOz1--17" edge="1">
          <mxGeometry width="50" height="50" relative="1" as="geometry">
            <mxPoint x="435" y="250" as="sourcePoint" />
            <mxPoint x="485" y="200" as="targetPoint" />
          </mxGeometry>
        </mxCell>
        <mxCell id="2O2xdy5Lqr-6Pk8-hybj-5" value="&lt;span style=&quot;background-color: light-dark(#ffffff, var(--ge-dark-color, #121212)); color: light-dark(rgb(0, 0, 0), rgb(255, 255, 255));&quot;&gt;(POST JSON)&lt;/span&gt;" style="edgeLabel;html=1;align=center;verticalAlign=middle;resizable=0;points=[];" parent="54EEIA_b8rpqhzSQcVar-40" vertex="1" connectable="0">
          <mxGeometry x="-0.4296" y="-2" relative="1" as="geometry">
            <mxPoint x="21" y="-2" as="offset" />
          </mxGeometry>
        </mxCell>
        <mxCell id="W1p5YG6WSGKKvp44htcb-12" style="edgeStyle=orthogonalEdgeStyle;rounded=0;orthogonalLoop=1;jettySize=auto;html=1;exitX=0.5;exitY=1;exitDx=0;exitDy=0;entryX=0.5;entryY=0;entryDx=0;entryDy=0;" edge="1" parent="1" source="54EEIA_b8rpqhzSQcVar-49" target="W1p5YG6WSGKKvp44htcb-9">
          <mxGeometry relative="1" as="geometry">
            <Array as="points">
              <mxPoint x="904" y="556" />
              <mxPoint x="711" y="556" />
            </Array>
          </mxGeometry>
        </mxCell>
        <mxCell id="54EEIA_b8rpqhzSQcVar-49" value="Interfaz web (visualización de datos unificados)" style="rounded=0;whiteSpace=wrap;html=1;" parent="1" vertex="1">
          <mxGeometry x="835" y="377.5" width="137" height="44" as="geometry" />
        </mxCell>
        <mxCell id="W1p5YG6WSGKKvp44htcb-6" value="" style="endArrow=classic;html=1;rounded=0;entryX=0.5;entryY=0;entryDx=0;entryDy=0;" edge="1" parent="1" source="fFbLZVn89i1oZEoZOz1--1" target="fFbLZVn89i1oZEoZOz1--15">
          <mxGeometry width="50" height="50" relative="1" as="geometry">
            <mxPoint x="479" y="286" as="sourcePoint" />
            <mxPoint x="681" y="400" as="targetPoint" />
          </mxGeometry>
        </mxCell>
        <mxCell id="W1p5YG6WSGKKvp44htcb-7" value="" style="endArrow=classic;html=1;rounded=0;entryX=0.75;entryY=0;entryDx=0;entryDy=0;" edge="1" parent="1" source="fFbLZVn89i1oZEoZOz1--24" target="fFbLZVn89i1oZEoZOz1--17">
          <mxGeometry width="50" height="50" relative="1" as="geometry">
            <mxPoint x="772" y="212" as="sourcePoint" />
            <mxPoint x="681" y="365" as="targetPoint" />
          </mxGeometry>
        </mxCell>
        <mxCell id="W1p5YG6WSGKKvp44htcb-9" value="Base de datos" style="rounded=0;whiteSpace=wrap;html=1;" vertex="1" parent="1">
          <mxGeometry x="651" y="577" width="120" height="35" as="geometry" />
        </mxCell>
        <mxCell id="W1p5YG6WSGKKvp44htcb-10" style="edgeStyle=orthogonalEdgeStyle;rounded=0;orthogonalLoop=1;jettySize=auto;html=1;exitX=0.5;exitY=1;exitDx=0;exitDy=0;entryX=0.5;entryY=0;entryDx=0;entryDy=0;" edge="1" parent="1" source="54EEIA_b8rpqhzSQcVar-13" target="W1p5YG6WSGKKvp44htcb-9">
          <mxGeometry relative="1" as="geometry">
            <Array as="points">
              <mxPoint x="475" y="556" />
              <mxPoint x="711" y="556" />
            </Array>
          </mxGeometry>
        </mxCell>
      </root>
    </mxGraphModel>
  </diagram>
</mxfile>
